<svg width="152" height="52" viewBox="0 0 152 52" fill="none" xmlns="http://www.w3.org/2000/svg">
<mask id="path-1-outside-1_1883_440" maskUnits="userSpaceOnUse" x="0.707031" y="0.171875" width="152" height="52" fill="black">
<rect fill="white" x="0.707031" y="0.171875" width="152" height="52"/>
<path d="M18.6406 34.3359C19.4023 34.3359 19.7832 34.0723 19.7832 33.5449C19.7832 33.0176 19.5977 32.4023 19.2266 31.6992C18.875 30.9766 18.3672 30.3125 17.7031 29.707C15.9453 28.0859 13.6016 27.2754 10.6719 27.2754C9.26562 27.2754 8.03516 27.4512 6.98047 27.8027C5.37891 27.2168 4.09961 26.1523 3.14258 24.6094C2.18555 23.0664 1.70703 21.3184 1.70703 19.3652C1.70703 15.7129 3.07422 12.793 5.80859 10.6055C8.11328 8.76953 11.1797 7.56836 15.0078 7.00195C15.0273 6.94336 15.0371 6.83594 15.0371 6.67969C15.0371 6.13281 14.7441 5.85938 14.1582 5.85938C13.8262 5.85938 13.2598 5.97656 12.459 6.21094V3.04688C14.2363 1.79688 16.3262 1.17188 18.7285 1.17188C21.1504 1.17188 23.3965 1.79688 25.4668 3.04688V7.20703C28.6895 7.79297 31.1504 8.57422 32.8496 9.55078C33.2988 10.8594 33.5234 12.3145 33.5234 13.916C33.5234 16.9629 32.8203 19.2578 31.4141 20.8008C30.6523 20.2539 29.4707 19.7656 27.8691 19.3359C26.2871 18.9062 24.7832 18.6914 23.3574 18.6914C21.9316 18.6914 20.9648 18.8086 20.457 19.043C19.9688 19.2773 19.7246 19.5215 19.7246 19.7754C19.7246 19.9512 19.7539 20.1172 19.8125 20.2734C20.4961 20.0977 21.375 20.0098 22.4492 20.0098C26.2188 20.0098 29.3242 20.9375 31.7656 22.793C34.5977 24.9805 36.0137 28.1738 36.0137 32.373C36.0137 35.4199 34.9199 38.1055 32.7324 40.4297C30.5645 42.7344 27.5078 44.2773 23.5625 45.0586C23.543 45.1172 23.5332 45.2246 23.5332 45.3809C23.5332 45.9277 23.8262 46.2012 24.4121 46.2012C24.7441 46.2012 25.3105 46.084 26.1113 45.8496V49.0137C24.334 50.2637 22.2344 50.8887 19.8125 50.8887C17.4102 50.8887 15.1738 50.2637 13.1035 49.0137V45.1758C9.91992 44.7461 7.06836 43.8281 4.54883 42.4219C3.08398 40.4297 2.35156 38.3496 2.35156 36.1816C2.35156 34.0137 3.10352 32.207 4.60742 30.7617C6.11133 29.3164 7.95703 28.5938 10.1445 28.5938C12.3516 28.5938 14.1484 29.043 15.5352 29.9414C16.9414 30.8398 17.9766 32.3047 18.6406 34.3359Z"/>
<path d="M63.7285 5.44922C65.8574 5.46875 67.4785 6.2793 68.5918 7.88086C69.7051 9.46289 70.4473 11.7188 70.8184 14.6484C71.209 17.5781 71.3945 21.0645 71.375 25.1074C71.3945 27.2949 71.3457 29.6777 71.2285 32.2559C71.1113 34.834 70.7988 37.2559 70.291 39.5215C69.7832 41.7676 68.9336 43.4961 67.7422 44.707C66.5508 45.918 64.8906 46.25 62.7617 45.7031C61.3359 45.2344 60.2422 44.3848 59.4805 43.1543C58.7383 41.9043 58.2305 40.625 57.957 39.3164C57.8203 38.7305 57.7324 38.1348 57.6934 37.5293C57.6738 36.5137 57.459 35.5566 57.0488 34.6582C56.834 34.2285 56.5117 33.877 56.082 33.6035C55.6719 33.3301 55.2129 33.2129 54.7051 33.252C53.8457 33.4082 53.2305 33.877 52.8594 34.6582C52.5664 35.4004 52.4395 36.1719 52.4785 36.9727C52.5371 38.0273 52.459 39.082 52.2441 40.1367C51.834 41.8359 50.9746 43.3008 49.666 44.5312C48.5527 45.4297 47.332 45.8984 46.0039 45.9375C44.6953 45.9766 43.4453 45.6152 42.2539 44.8535C40.5352 43.7402 39.4121 42.4219 38.8848 40.8984C38.377 39.3555 38.0156 37.3535 37.8008 34.8926L37.7422 34.4824C37.2148 29.834 36.9512 25.166 36.9512 20.4785C36.9512 19.9512 36.9414 19.4238 36.9219 18.8965C36.8242 15.9277 36.9512 13.5352 37.3027 11.7188C37.6543 9.90234 38.6602 8.27148 40.3203 6.82617C42.0781 5.40039 44.0605 4.94141 46.2676 5.44922C48.2207 5.89844 49.6172 6.79688 50.457 8.14453C51.3164 9.49219 51.8926 11.4062 52.1855 13.8867C52.2637 14.8828 52.2441 15.9277 52.127 17.0215C52.0488 17.8223 52.0098 18.6133 52.0098 19.3945C52.0098 20.1758 52.1562 20.9082 52.4492 21.5918C52.7031 22.2559 53.1621 22.6758 53.8262 22.8516C54.2559 22.9492 54.666 22.9102 55.0566 22.7344C55.4668 22.5391 55.7988 22.2559 56.0527 21.8848C56.4824 21.1621 56.6973 20.3809 56.6973 19.541C56.7363 19.1895 56.7656 18.8477 56.7852 18.5156C56.8633 15.8984 57.2539 13.3008 57.957 10.7227C58.4062 9.23828 59.1484 7.99805 60.1836 7.00195C61.2383 6.00586 62.4199 5.48828 63.7285 5.44922Z"/>
<path d="M110.574 18.4863C111.824 22.5098 111.951 26.5918 110.955 30.7324C109.959 34.873 108.025 38.3203 105.154 41.0742C103.436 42.6367 101.541 43.8281 99.4707 44.6484C94.4902 46.543 89.5879 46.2988 84.7637 43.916C80.0176 41.3574 76.6387 37.3438 74.627 31.875C73.5723 28.8867 73.1523 25.791 73.3672 22.5879C73.6211 19.5801 74.4512 16.7969 75.8574 14.2383C77.2832 11.6602 79.1289 9.58008 81.3945 7.99805C83.9922 6.29883 86.8828 5.39062 90.0664 5.27344C93.25 5.13672 96.2578 5.56641 99.0898 6.5625C101.766 7.5 104.1 8.99414 106.092 11.0449C108.104 13.0957 109.598 15.5762 110.574 18.4863ZM96.2773 27.6855C96.8828 26.6699 97.0879 25.5859 96.8926 24.4336C96.6973 23.2617 96.1699 22.2852 95.3105 21.5039C94.0996 20.4688 92.7129 20.1074 91.1504 20.4199C89.8809 20.7715 88.8848 21.5039 88.1621 22.6172C87.459 23.7695 87.2441 24.9805 87.5176 26.25C87.8105 27.5 88.5332 28.4863 89.6855 29.209C90.6426 29.7559 91.707 29.9707 92.8789 29.8535C94.0703 29.7168 95.0371 29.209 95.7793 28.3301C95.7988 28.3105 95.8184 28.291 95.8379 28.2715C95.8379 28.252 95.8477 28.2324 95.8672 28.2129C96.0234 28.0566 96.1602 27.8809 96.2773 27.6855Z"/>
<path d="M125.252 8.75977C127.752 7.35352 130.447 6.38672 133.338 5.85938C135.037 5.52734 136.863 5.37109 138.816 5.39062C140.77 5.39062 142.469 5.89844 143.914 6.91406C145.789 8.45703 146.668 10.3906 146.551 12.7148C146.434 13.6719 146.072 14.5605 145.467 15.3809C144.881 16.2012 144.109 16.6992 143.152 16.875C142.098 16.9727 141.062 16.9922 140.047 16.9336C138.621 16.8164 137.156 16.9336 135.652 17.2852C134.324 17.6758 133.113 18.291 132.02 19.1309C130.945 19.9512 130.125 20.9766 129.559 22.207C128.914 23.7695 128.846 25.2246 129.354 26.5723C129.881 27.9199 130.828 29.0527 132.195 29.9707C132.82 30.459 133.514 30.7324 134.275 30.791C134.686 30.791 135.057 30.6934 135.389 30.498C135.721 30.3027 135.945 30.0195 136.062 29.6484C136.141 29.3164 136.111 28.9941 135.975 28.6816C135.857 28.3496 135.701 28.0273 135.506 27.7148C135.35 27.4609 135.203 27.207 135.066 26.9531C134.754 26.2109 134.695 25.4492 134.891 24.668C135.086 23.8672 135.438 23.1543 135.945 22.5293C137 21.2402 138.23 20.3711 139.637 19.9219C141.043 19.4727 142.547 19.5312 144.148 20.0977C146.746 21.1328 148.592 22.9297 149.686 25.4883C150.682 27.9688 150.965 30.5469 150.535 33.2227C150.203 35.7617 149.285 38.0664 147.781 40.1367C146.609 41.6602 145.164 42.8809 143.445 43.7988C141.727 44.7168 139.9 45.3418 137.967 45.6738C134.588 46.2207 131.277 45.9668 128.035 44.9121C124.793 43.8379 122.01 42.0898 119.686 39.668C117.381 37.207 115.818 34.3652 114.998 31.1426C114.178 27.9004 114.178 24.668 114.998 21.4453C115.779 18.6523 117.059 16.1914 118.836 14.0625C120.633 11.9141 122.771 10.1465 125.252 8.75977Z"/>
</mask>
<path d="M18.6406 34.3359C19.4023 34.3359 19.7832 34.0723 19.7832 33.5449C19.7832 33.0176 19.5977 32.4023 19.2266 31.6992C18.875 30.9766 18.3672 30.3125 17.7031 29.707C15.9453 28.0859 13.6016 27.2754 10.6719 27.2754C9.26562 27.2754 8.03516 27.4512 6.98047 27.8027C5.37891 27.2168 4.09961 26.1523 3.14258 24.6094C2.18555 23.0664 1.70703 21.3184 1.70703 19.3652C1.70703 15.7129 3.07422 12.793 5.80859 10.6055C8.11328 8.76953 11.1797 7.56836 15.0078 7.00195C15.0273 6.94336 15.0371 6.83594 15.0371 6.67969C15.0371 6.13281 14.7441 5.85938 14.1582 5.85938C13.8262 5.85938 13.2598 5.97656 12.459 6.21094V3.04688C14.2363 1.79688 16.3262 1.17188 18.7285 1.17188C21.1504 1.17188 23.3965 1.79688 25.4668 3.04688V7.20703C28.6895 7.79297 31.1504 8.57422 32.8496 9.55078C33.2988 10.8594 33.5234 12.3145 33.5234 13.916C33.5234 16.9629 32.8203 19.2578 31.4141 20.8008C30.6523 20.2539 29.4707 19.7656 27.8691 19.3359C26.2871 18.9062 24.7832 18.6914 23.3574 18.6914C21.9316 18.6914 20.9648 18.8086 20.457 19.043C19.9688 19.2773 19.7246 19.5215 19.7246 19.7754C19.7246 19.9512 19.7539 20.1172 19.8125 20.2734C20.4961 20.0977 21.375 20.0098 22.4492 20.0098C26.2188 20.0098 29.3242 20.9375 31.7656 22.793C34.5977 24.9805 36.0137 28.1738 36.0137 32.373C36.0137 35.4199 34.9199 38.1055 32.7324 40.4297C30.5645 42.7344 27.5078 44.2773 23.5625 45.0586C23.543 45.1172 23.5332 45.2246 23.5332 45.3809C23.5332 45.9277 23.8262 46.2012 24.4121 46.2012C24.7441 46.2012 25.3105 46.084 26.1113 45.8496V49.0137C24.334 50.2637 22.2344 50.8887 19.8125 50.8887C17.4102 50.8887 15.1738 50.2637 13.1035 49.0137V45.1758C9.91992 44.7461 7.06836 43.8281 4.54883 42.4219C3.08398 40.4297 2.35156 38.3496 2.35156 36.1816C2.35156 34.0137 3.10352 32.207 4.60742 30.7617C6.11133 29.3164 7.95703 28.5938 10.1445 28.5938C12.3516 28.5938 14.1484 29.043 15.5352 29.9414C16.9414 30.8398 17.9766 32.3047 18.6406 34.3359Z" fill="white"/>
<path d="M63.7285 5.44922C65.8574 5.46875 67.4785 6.2793 68.5918 7.88086C69.7051 9.46289 70.4473 11.7188 70.8184 14.6484C71.209 17.5781 71.3945 21.0645 71.375 25.1074C71.3945 27.2949 71.3457 29.6777 71.2285 32.2559C71.1113 34.834 70.7988 37.2559 70.291 39.5215C69.7832 41.7676 68.9336 43.4961 67.7422 44.707C66.5508 45.918 64.8906 46.25 62.7617 45.7031C61.3359 45.2344 60.2422 44.3848 59.4805 43.1543C58.7383 41.9043 58.2305 40.625 57.957 39.3164C57.8203 38.7305 57.7324 38.1348 57.6934 37.5293C57.6738 36.5137 57.459 35.5566 57.0488 34.6582C56.834 34.2285 56.5117 33.877 56.082 33.6035C55.6719 33.3301 55.2129 33.2129 54.7051 33.252C53.8457 33.4082 53.2305 33.877 52.8594 34.6582C52.5664 35.4004 52.4395 36.1719 52.4785 36.9727C52.5371 38.0273 52.459 39.082 52.2441 40.1367C51.834 41.8359 50.9746 43.3008 49.666 44.5312C48.5527 45.4297 47.332 45.8984 46.0039 45.9375C44.6953 45.9766 43.4453 45.6152 42.2539 44.8535C40.5352 43.7402 39.4121 42.4219 38.8848 40.8984C38.377 39.3555 38.0156 37.3535 37.8008 34.8926L37.7422 34.4824C37.2148 29.834 36.9512 25.166 36.9512 20.4785C36.9512 19.9512 36.9414 19.4238 36.9219 18.8965C36.8242 15.9277 36.9512 13.5352 37.3027 11.7188C37.6543 9.90234 38.6602 8.27148 40.3203 6.82617C42.0781 5.40039 44.0605 4.94141 46.2676 5.44922C48.2207 5.89844 49.6172 6.79688 50.457 8.14453C51.3164 9.49219 51.8926 11.4062 52.1855 13.8867C52.2637 14.8828 52.2441 15.9277 52.127 17.0215C52.0488 17.8223 52.0098 18.6133 52.0098 19.3945C52.0098 20.1758 52.1562 20.9082 52.4492 21.5918C52.7031 22.2559 53.1621 22.6758 53.8262 22.8516C54.2559 22.9492 54.666 22.9102 55.0566 22.7344C55.4668 22.5391 55.7988 22.2559 56.0527 21.8848C56.4824 21.1621 56.6973 20.3809 56.6973 19.541C56.7363 19.1895 56.7656 18.8477 56.7852 18.5156C56.8633 15.8984 57.2539 13.3008 57.957 10.7227C58.4062 9.23828 59.1484 7.99805 60.1836 7.00195C61.2383 6.00586 62.4199 5.48828 63.7285 5.44922Z" fill="white"/>
<path d="M110.574 18.4863C111.824 22.5098 111.951 26.5918 110.955 30.7324C109.959 34.873 108.025 38.3203 105.154 41.0742C103.436 42.6367 101.541 43.8281 99.4707 44.6484C94.4902 46.543 89.5879 46.2988 84.7637 43.916C80.0176 41.3574 76.6387 37.3438 74.627 31.875C73.5723 28.8867 73.1523 25.791 73.3672 22.5879C73.6211 19.5801 74.4512 16.7969 75.8574 14.2383C77.2832 11.6602 79.1289 9.58008 81.3945 7.99805C83.9922 6.29883 86.8828 5.39062 90.0664 5.27344C93.25 5.13672 96.2578 5.56641 99.0898 6.5625C101.766 7.5 104.1 8.99414 106.092 11.0449C108.104 13.0957 109.598 15.5762 110.574 18.4863ZM96.2773 27.6855C96.8828 26.6699 97.0879 25.5859 96.8926 24.4336C96.6973 23.2617 96.1699 22.2852 95.3105 21.5039C94.0996 20.4688 92.7129 20.1074 91.1504 20.4199C89.8809 20.7715 88.8848 21.5039 88.1621 22.6172C87.459 23.7695 87.2441 24.9805 87.5176 26.25C87.8105 27.5 88.5332 28.4863 89.6855 29.209C90.6426 29.7559 91.707 29.9707 92.8789 29.8535C94.0703 29.7168 95.0371 29.209 95.7793 28.3301C95.7988 28.3105 95.8184 28.291 95.8379 28.2715C95.8379 28.252 95.8477 28.2324 95.8672 28.2129C96.0234 28.0566 96.1602 27.8809 96.2773 27.6855Z" fill="white"/>
<path d="M125.252 8.75977C127.752 7.35352 130.447 6.38672 133.338 5.85938C135.037 5.52734 136.863 5.37109 138.816 5.39062C140.77 5.39062 142.469 5.89844 143.914 6.91406C145.789 8.45703 146.668 10.3906 146.551 12.7148C146.434 13.6719 146.072 14.5605 145.467 15.3809C144.881 16.2012 144.109 16.6992 143.152 16.875C142.098 16.9727 141.062 16.9922 140.047 16.9336C138.621 16.8164 137.156 16.9336 135.652 17.2852C134.324 17.6758 133.113 18.291 132.02 19.1309C130.945 19.9512 130.125 20.9766 129.559 22.207C128.914 23.7695 128.846 25.2246 129.354 26.5723C129.881 27.9199 130.828 29.0527 132.195 29.9707C132.82 30.459 133.514 30.7324 134.275 30.791C134.686 30.791 135.057 30.6934 135.389 30.498C135.721 30.3027 135.945 30.0195 136.062 29.6484C136.141 29.3164 136.111 28.9941 135.975 28.6816C135.857 28.3496 135.701 28.0273 135.506 27.7148C135.35 27.4609 135.203 27.207 135.066 26.9531C134.754 26.2109 134.695 25.4492 134.891 24.668C135.086 23.8672 135.438 23.1543 135.945 22.5293C137 21.2402 138.23 20.3711 139.637 19.9219C141.043 19.4727 142.547 19.5312 144.148 20.0977C146.746 21.1328 148.592 22.9297 149.686 25.4883C150.682 27.9688 150.965 30.5469 150.535 33.2227C150.203 35.7617 149.285 38.0664 147.781 40.1367C146.609 41.6602 145.164 42.8809 143.445 43.7988C141.727 44.7168 139.9 45.3418 137.967 45.6738C134.588 46.2207 131.277 45.9668 128.035 44.9121C124.793 43.8379 122.01 42.0898 119.686 39.668C117.381 37.207 115.818 34.3652 114.998 31.1426C114.178 27.9004 114.178 24.668 114.998 21.4453C115.779 18.6523 117.059 16.1914 118.836 14.0625C120.633 11.9141 122.771 10.1465 125.252 8.75977Z" fill="white"/>
<path d="M18.6406 34.3359C19.4023 34.3359 19.7832 34.0723 19.7832 33.5449C19.7832 33.0176 19.5977 32.4023 19.2266 31.6992C18.875 30.9766 18.3672 30.3125 17.7031 29.707C15.9453 28.0859 13.6016 27.2754 10.6719 27.2754C9.26562 27.2754 8.03516 27.4512 6.98047 27.8027C5.37891 27.2168 4.09961 26.1523 3.14258 24.6094C2.18555 23.0664 1.70703 21.3184 1.70703 19.3652C1.70703 15.7129 3.07422 12.793 5.80859 10.6055C8.11328 8.76953 11.1797 7.56836 15.0078 7.00195C15.0273 6.94336 15.0371 6.83594 15.0371 6.67969C15.0371 6.13281 14.7441 5.85938 14.1582 5.85938C13.8262 5.85938 13.2598 5.97656 12.459 6.21094V3.04688C14.2363 1.79688 16.3262 1.17188 18.7285 1.17188C21.1504 1.17188 23.3965 1.79688 25.4668 3.04688V7.20703C28.6895 7.79297 31.1504 8.57422 32.8496 9.55078C33.2988 10.8594 33.5234 12.3145 33.5234 13.916C33.5234 16.9629 32.8203 19.2578 31.4141 20.8008C30.6523 20.2539 29.4707 19.7656 27.8691 19.3359C26.2871 18.9062 24.7832 18.6914 23.3574 18.6914C21.9316 18.6914 20.9648 18.8086 20.457 19.043C19.9688 19.2773 19.7246 19.5215 19.7246 19.7754C19.7246 19.9512 19.7539 20.1172 19.8125 20.2734C20.4961 20.0977 21.375 20.0098 22.4492 20.0098C26.2188 20.0098 29.3242 20.9375 31.7656 22.793C34.5977 24.9805 36.0137 28.1738 36.0137 32.373C36.0137 35.4199 34.9199 38.1055 32.7324 40.4297C30.5645 42.7344 27.5078 44.2773 23.5625 45.0586C23.543 45.1172 23.5332 45.2246 23.5332 45.3809C23.5332 45.9277 23.8262 46.2012 24.4121 46.2012C24.7441 46.2012 25.3105 46.084 26.1113 45.8496V49.0137C24.334 50.2637 22.2344 50.8887 19.8125 50.8887C17.4102 50.8887 15.1738 50.2637 13.1035 49.0137V45.1758C9.91992 44.7461 7.06836 43.8281 4.54883 42.4219C3.08398 40.4297 2.35156 38.3496 2.35156 36.1816C2.35156 34.0137 3.10352 32.207 4.60742 30.7617C6.11133 29.3164 7.95703 28.5938 10.1445 28.5938C12.3516 28.5938 14.1484 29.043 15.5352 29.9414C16.9414 30.8398 17.9766 32.3047 18.6406 34.3359Z" stroke="black" stroke-width="2" mask="url(#path-1-outside-1_1883_440)"/>
<path d="M63.7285 5.44922C65.8574 5.46875 67.4785 6.2793 68.5918 7.88086C69.7051 9.46289 70.4473 11.7188 70.8184 14.6484C71.209 17.5781 71.3945 21.0645 71.375 25.1074C71.3945 27.2949 71.3457 29.6777 71.2285 32.2559C71.1113 34.834 70.7988 37.2559 70.291 39.5215C69.7832 41.7676 68.9336 43.4961 67.7422 44.707C66.5508 45.918 64.8906 46.25 62.7617 45.7031C61.3359 45.2344 60.2422 44.3848 59.4805 43.1543C58.7383 41.9043 58.2305 40.625 57.957 39.3164C57.8203 38.7305 57.7324 38.1348 57.6934 37.5293C57.6738 36.5137 57.459 35.5566 57.0488 34.6582C56.834 34.2285 56.5117 33.877 56.082 33.6035C55.6719 33.3301 55.2129 33.2129 54.7051 33.252C53.8457 33.4082 53.2305 33.877 52.8594 34.6582C52.5664 35.4004 52.4395 36.1719 52.4785 36.9727C52.5371 38.0273 52.459 39.082 52.2441 40.1367C51.834 41.8359 50.9746 43.3008 49.666 44.5312C48.5527 45.4297 47.332 45.8984 46.0039 45.9375C44.6953 45.9766 43.4453 45.6152 42.2539 44.8535C40.5352 43.7402 39.4121 42.4219 38.8848 40.8984C38.377 39.3555 38.0156 37.3535 37.8008 34.8926L37.7422 34.4824C37.2148 29.834 36.9512 25.166 36.9512 20.4785C36.9512 19.9512 36.9414 19.4238 36.9219 18.8965C36.8242 15.9277 36.9512 13.5352 37.3027 11.7188C37.6543 9.90234 38.6602 8.27148 40.3203 6.82617C42.0781 5.40039 44.0605 4.94141 46.2676 5.44922C48.2207 5.89844 49.6172 6.79688 50.457 8.14453C51.3164 9.49219 51.8926 11.4062 52.1855 13.8867C52.2637 14.8828 52.2441 15.9277 52.127 17.0215C52.0488 17.8223 52.0098 18.6133 52.0098 19.3945C52.0098 20.1758 52.1562 20.9082 52.4492 21.5918C52.7031 22.2559 53.1621 22.6758 53.8262 22.8516C54.2559 22.9492 54.666 22.9102 55.0566 22.7344C55.4668 22.5391 55.7988 22.2559 56.0527 21.8848C56.4824 21.1621 56.6973 20.3809 56.6973 19.541C56.7363 19.1895 56.7656 18.8477 56.7852 18.5156C56.8633 15.8984 57.2539 13.3008 57.957 10.7227C58.4062 9.23828 59.1484 7.99805 60.1836 7.00195C61.2383 6.00586 62.4199 5.48828 63.7285 5.44922Z" stroke="black" stroke-width="2" mask="url(#path-1-outside-1_1883_440)"/>
<path d="M110.574 18.4863C111.824 22.5098 111.951 26.5918 110.955 30.7324C109.959 34.873 108.025 38.3203 105.154 41.0742C103.436 42.6367 101.541 43.8281 99.4707 44.6484C94.4902 46.543 89.5879 46.2988 84.7637 43.916C80.0176 41.3574 76.6387 37.3438 74.627 31.875C73.5723 28.8867 73.1523 25.791 73.3672 22.5879C73.6211 19.5801 74.4512 16.7969 75.8574 14.2383C77.2832 11.6602 79.1289 9.58008 81.3945 7.99805C83.9922 6.29883 86.8828 5.39062 90.0664 5.27344C93.25 5.13672 96.2578 5.56641 99.0898 6.5625C101.766 7.5 104.1 8.99414 106.092 11.0449C108.104 13.0957 109.598 15.5762 110.574 18.4863ZM96.2773 27.6855C96.8828 26.6699 97.0879 25.5859 96.8926 24.4336C96.6973 23.2617 96.1699 22.2852 95.3105 21.5039C94.0996 20.4688 92.7129 20.1074 91.1504 20.4199C89.8809 20.7715 88.8848 21.5039 88.1621 22.6172C87.459 23.7695 87.2441 24.9805 87.5176 26.25C87.8105 27.5 88.5332 28.4863 89.6855 29.209C90.6426 29.7559 91.707 29.9707 92.8789 29.8535C94.0703 29.7168 95.0371 29.209 95.7793 28.3301C95.7988 28.3105 95.8184 28.291 95.8379 28.2715C95.8379 28.252 95.8477 28.2324 95.8672 28.2129C96.0234 28.0566 96.1602 27.8809 96.2773 27.6855Z" stroke="black" stroke-width="2" mask="url(#path-1-outside-1_1883_440)"/>
<path d="M125.252 8.75977C127.752 7.35352 130.447 6.38672 133.338 5.85938C135.037 5.52734 136.863 5.37109 138.816 5.39062C140.77 5.39062 142.469 5.89844 143.914 6.91406C145.789 8.45703 146.668 10.3906 146.551 12.7148C146.434 13.6719 146.072 14.5605 145.467 15.3809C144.881 16.2012 144.109 16.6992 143.152 16.875C142.098 16.9727 141.062 16.9922 140.047 16.9336C138.621 16.8164 137.156 16.9336 135.652 17.2852C134.324 17.6758 133.113 18.291 132.02 19.1309C130.945 19.9512 130.125 20.9766 129.559 22.207C128.914 23.7695 128.846 25.2246 129.354 26.5723C129.881 27.9199 130.828 29.0527 132.195 29.9707C132.82 30.459 133.514 30.7324 134.275 30.791C134.686 30.791 135.057 30.6934 135.389 30.498C135.721 30.3027 135.945 30.0195 136.062 29.6484C136.141 29.3164 136.111 28.9941 135.975 28.6816C135.857 28.3496 135.701 28.0273 135.506 27.7148C135.35 27.4609 135.203 27.207 135.066 26.9531C134.754 26.2109 134.695 25.4492 134.891 24.668C135.086 23.8672 135.438 23.1543 135.945 22.5293C137 21.2402 138.23 20.3711 139.637 19.9219C141.043 19.4727 142.547 19.5312 144.148 20.0977C146.746 21.1328 148.592 22.9297 149.686 25.4883C150.682 27.9688 150.965 30.5469 150.535 33.2227C150.203 35.7617 149.285 38.0664 147.781 40.1367C146.609 41.6602 145.164 42.8809 143.445 43.7988C141.727 44.7168 139.9 45.3418 137.967 45.6738C134.588 46.2207 131.277 45.9668 128.035 44.9121C124.793 43.8379 122.01 42.0898 119.686 39.668C117.381 37.207 115.818 34.3652 114.998 31.1426C114.178 27.9004 114.178 24.668 114.998 21.4453C115.779 18.6523 117.059 16.1914 118.836 14.0625C120.633 11.9141 122.771 10.1465 125.252 8.75977Z" stroke="black" stroke-width="2" mask="url(#path-1-outside-1_1883_440)"/>
</svg>
