<?xml version="1.0" encoding="UTF-8"?>
<svg id="Layer_1" data-name="Layer 1" xmlns="http://www.w3.org/2000/svg" viewBox="0 0 173.37 161.17">
  <g>
    <path d="m115.21,28.74c0,.07,0,.13-.02.19-.01.06-.03.12-.06.18s-.05.11-.09.16c-.03.05-.07.1-.12.14-.04.04-.09.08-.14.12-.05.03-.11.06-.16.09-.06.02-.12.04-.18.06-.06.01-.13.02-.19.02s-.13,0-.19-.02-.12-.03-.18-.06c-.06-.02-.11-.05-.16-.09-.05-.03-.1-.07-.14-.12-.04-.04-.08-.09-.12-.14-.03-.05-.06-.11-.09-.16s-.04-.12-.06-.18c-.01-.06-.02-.13-.02-.19s0-.13.02-.19c.01-.06.03-.12.06-.18.02-.06.05-.11.09-.16.03-.05.07-.1.12-.14.04-.04.09-.08.14-.12.05-.03.11-.06.16-.09s.12-.04.18-.06c.06-.01.13-.02.19-.02s.13,0,.19.02c.06.01.12.03.18.06.06.02.11.05.16.09.05.03.1.07.14.12s.08.09.12.14c.03.05.06.11.09.16.02.06.04.12.06.18.01.06.02.13.02.19Z" style="fill: #fff;"/>
    <path d="m173.37,160.63s0,.07-.01.11c0,.04-.02.07-.03.1-.01.03-.03.06-.05.09-.02.03-.04.06-.07.08-.02.02-.05.05-.08.07-.03.02-.06.04-.09.05s-.07.02-.1.03c-.04,0-.07.01-.11.01s-.07,0-.11-.01c-.04,0-.07-.02-.1-.03s-.06-.03-.09-.05c-.03-.02-.06-.04-.08-.07-.02-.02-.05-.05-.07-.08-.02-.03-.04-.06-.05-.09-.01-.03-.02-.07-.03-.1,0-.04-.01-.07-.01-.11s0-.07.01-.11c0-.04.02-.07.03-.1s.03-.06.05-.09c.02-.03.04-.06.07-.08s.05-.05.08-.07c.03-.02.06-.04.09-.05.03-.01.07-.02.1-.03.04,0,.07-.01.11-.01s.07,0,.11.01c.04,0,.07.02.1.03.03.01.06.03.09.05.03.02.06.04.08.07.02.02.05.05.07.08.02.03.04.06.05.09.01.03.02.07.03.1,0,.04.01.07.01.11Z" style="fill: #fff;"/>
    <path d="m3.92,107.44c0,.14-.01.27-.04.39-.03.13-.06.25-.11.37-.05.12-.11.23-.18.33-.07.1-.15.2-.24.29-.09.09-.19.17-.29.24-.1.07-.22.13-.33.18-.12.05-.24.09-.37.11-.13.03-.26.04-.39.04s-.27-.01-.39-.04c-.13-.03-.25-.06-.37-.11s-.23-.11-.33-.18c-.1-.07-.2-.15-.29-.24-.09-.09-.17-.19-.24-.29-.07-.1-.13-.22-.18-.33-.05-.12-.09-.24-.11-.37-.03-.13-.04-.26-.04-.39s.01-.27.04-.39c.03-.13.06-.25.11-.37.05-.12.11-.23.18-.33.07-.1.15-.2.24-.29.09-.09.19-.17.29-.24.1-.07.22-.13.33-.18s.24-.09.37-.11c.13-.03.26-.04.39-.04s.27.01.39.04c.13.03.25.06.37.11.12.05.23.11.33.18.1.07.2.15.29.24.09.09.17.19.24.29.07.1.13.22.18.33.05.12.09.24.11.37.03.13.04.26.04.39Z" style="fill: #fff;"/>
    <path d="m96.38,79.87c0,.14-.01.28-.04.41s-.07.26-.12.38-.12.24-.19.35c-.07.11-.16.21-.25.3-.09.09-.19.18-.3.25-.11.07-.23.14-.35.19s-.25.09-.38.12c-.13.03-.27.04-.41.04s-.28-.01-.41-.04c-.13-.03-.26-.07-.38-.12-.12-.05-.24-.12-.35-.19-.11-.07-.21-.16-.3-.25-.09-.09-.18-.19-.25-.3-.07-.11-.14-.23-.19-.35-.05-.12-.09-.25-.12-.38-.03-.13-.04-.27-.04-.41s.01-.28.04-.41c.03-.13.07-.26.12-.38.05-.12.12-.24.19-.35.07-.11.16-.21.25-.3.09-.09.19-.18.3-.25.11-.07.23-.14.35-.19.12-.05.25-.09.38-.12.13-.03.27-.04.41-.04s.28.01.41.04c.13.03.26.07.38.12.12.05.24.12.35.19.11.07.21.16.3.25.09.09.18.19.25.3.07.11.14.23.19.35.05.12.09.25.12.38.03.13.04.27.04.41Z" style="fill: #fff;"/>
    <path d="m68.3,1.38c0,.1,0,.19-.03.28-.02.09-.05.18-.08.26-.03.08-.08.16-.13.23-.05.07-.11.14-.17.2-.06.06-.13.12-.2.17-.07.05-.15.09-.23.13-.08.03-.17.06-.26.08-.09.02-.18.03-.28.03s-.19,0-.28-.03c-.09-.02-.18-.05-.26-.08-.08-.03-.16-.08-.23-.13s-.14-.11-.2-.17c-.06-.06-.12-.13-.17-.2-.05-.07-.09-.15-.13-.23-.03-.08-.06-.17-.08-.26-.02-.09-.03-.18-.03-.28s0-.19.03-.28.05-.18.08-.26c.03-.08.08-.16.13-.23.05-.07.11-.14.17-.2.06-.06.13-.12.2-.17s.15-.09.23-.13c.08-.03.17-.06.26-.08.09-.02.18-.03.28-.03s.19,0,.28.03.18.05.26.08c.08.03.16.08.23.13.07.05.14.11.2.17.06.06.12.13.17.2.05.07.09.15.13.23.03.08.06.17.08.26s.03.18.03.28Z" style="fill: #fff;"/>
  </g>
  <g>
    <polygon points="45.27 145.47 45.36 145.09 45.45 144.71 45.54 144.33 45.63 143.95 45.72 143.57 45.81 143.19 45.9 142.81 45.99 142.43 45.67 142.19 45.36 141.96 45.04 141.72 44.72 141.48 44.41 141.25 44.09 141.01 43.77 140.78 43.46 140.54 43.85 140.51 44.25 140.47 44.65 140.44 45.04 140.41 45.44 140.38 45.83 140.34 46.23 140.31 46.63 140.28 46.76 139.91 46.89 139.54 47.02 139.17 47.15 138.8 47.28 138.43 47.41 138.06 47.54 137.7 47.67 137.33 47.83 137.69 47.98 138.05 48.13 138.41 48.29 138.77 48.44 139.13 48.6 139.49 48.75 139.85 48.91 140.21 49.3 140.21 49.7 140.22 50.1 140.23 50.5 140.24 50.89 140.25 51.29 140.25 51.69 140.26 52.09 140.27 51.79 140.52 51.49 140.78 51.18 141.04 50.88 141.29 50.58 141.55 50.28 141.8 49.98 142.06 49.68 142.31 49.8 142.69 49.91 143.06 50.03 143.43 50.14 143.81 50.26 144.18 50.37 144.55 50.49 144.93 50.6 145.3 50.26 145.1 49.92 144.9 49.58 144.69 49.24 144.49 48.9 144.29 48.56 144.09 48.22 143.89 47.88 143.68 47.55 143.91 47.23 144.13 46.9 144.35 46.57 144.58 46.25 144.8 45.92 145.02 45.59 145.25 45.27 145.47" style="fill: #fff;"/>
    <polygon points="154.35 15.38 154.59 15.55 154.83 15.71 155.07 15.88 155.31 16.04 155.56 16.21 155.8 16.37 156.04 16.54 156.28 16.7 156.53 16.55 156.78 16.4 157.03 16.25 157.28 16.09 157.53 15.94 157.78 15.79 158.02 15.63 158.27 15.48 158.19 15.76 158.11 16.04 158.03 16.32 157.94 16.6 157.86 16.88 157.78 17.16 157.69 17.44 157.61 17.72 157.83 17.91 158.06 18.1 158.28 18.29 158.5 18.48 158.72 18.67 158.95 18.86 159.17 19.05 159.39 19.24 159.1 19.25 158.81 19.26 158.52 19.27 158.22 19.27 157.93 19.28 157.64 19.29 157.35 19.3 157.05 19.31 156.94 19.58 156.83 19.85 156.72 20.12 156.61 20.39 156.5 20.66 156.38 20.93 156.27 21.2 156.16 21.47 156.06 21.19 155.96 20.92 155.87 20.64 155.77 20.37 155.67 20.09 155.57 19.81 155.48 19.54 155.38 19.26 155.09 19.24 154.79 19.22 154.5 19.2 154.21 19.17 153.92 19.15 153.63 19.13 153.34 19.11 153.04 19.08 153.28 18.9 153.51 18.73 153.74 18.55 153.97 18.37 154.2 18.19 154.44 18.01 154.67 17.83 154.9 17.66 154.83 17.37 154.76 17.09 154.69 16.8 154.62 16.52 154.56 16.23 154.49 15.95 154.42 15.67 154.35 15.38" style="fill: #fff;"/>
  </g>
</svg>